<?xml version="1.0" standalone="no"?>
<!DOCTYPE svg PUBLIC "-//W3C//DTD SVG 20010904//EN"
 "http://www.w3.org/TR/2001/REC-SVG-20010904/DTD/svg10.dtd">
<svg version="1.0" xmlns="http://www.w3.org/2000/svg"
 width="321.000000pt" height="469.000000pt" viewBox="0 0 321.000000 469.000000"
 preserveAspectRatio="xMidYMid meet">
<metadata>
Created by potrace 1.16, written by Peter Selinger 2001-2019
</metadata>
<g transform="translate(0.000000,469.000000) scale(0.100000,-0.100000)"
fill="#000000" stroke="none">
<path d="M1409 4680 c-395 -38 -757 -228 -995 -523 -358 -445 -435 -1074 -192
-1585 95 -200 294 -440 463 -557 39 -27 74 -52 78 -55 5 -4 -166 -391 -378
-859 -319 -702 -385 -854 -375 -866 7 -8 17 -15 22 -15 5 0 140 99 301 221
244 184 292 217 298 202 3 -10 37 -159 75 -331 69 -312 69 -313 94 -310 23 3
57 74 405 840 209 461 382 838 385 838 3 0 176 -376 385 -836 209 -460 383
-838 387 -840 4 -3 23 -2 43 2 27 5 35 11 35 28 0 22 117 637 122 642 3 3 542
-402 600 -452 18 -14 34 -22 35 -18 2 5 -177 405 -397 889 -220 484 -400 884
-400 890 0 5 32 35 71 65 154 119 329 337 412 512 50 105 94 234 119 351 30
138 32 435 5 572 -62 304 -195 554 -412 770 -170 171 -346 280 -574 355 -189
63 -418 89 -612 70z m383 -509 c486 -128 802 -572 757 -1065 -39 -419 -335
-762 -757 -878 -111 -31 -363 -31 -474 0 -491 135 -802 573 -757 1066 41 441
377 807 818 891 105 20 311 13 413 -14z"/>
<path d="M1470 3688 c-47 -95 -86 -175 -87 -177 -2 -3 -382 -50 -411 -51 -8 0
52 -69 132 -152 80 -84 146 -160 146 -169 0 -8 -17 -102 -39 -207 -21 -106
-37 -192 -35 -192 2 0 89 41 192 91 l188 90 178 -101 c98 -56 180 -99 183 -96
3 3 -6 87 -21 188 -14 101 -26 193 -26 205 0 15 45 63 150 159 83 76 147 141
143 145 -4 3 -89 24 -188 45 -99 20 -185 41 -191 46 -7 5 -58 85 -115 178 -57
93 -106 170 -109 170 -3 0 -44 -78 -90 -172z"/>
</g>
</svg>
