<?xml version="1.0" standalone="no"?>
<!DOCTYPE svg PUBLIC "-//W3C//DTD SVG 20010904//EN"
 "http://www.w3.org/TR/2001/REC-SVG-20010904/DTD/svg10.dtd">
<svg version="1.0" xmlns="http://www.w3.org/2000/svg"
 width="109.000000pt" height="105.000000pt" viewBox="0 0 109.000000 105.000000"
 preserveAspectRatio="xMidYMid meet">
<metadata>
Created by potrace 1.16, written by Peter Selinger 2001-2019
</metadata>
<g transform="translate(0.000000,105.000000) scale(0.100000,-0.100000)"
fill="#000000" stroke="none">
<path d="M312 1033 c-51 -25 -76 -68 -80 -139 l-4 -62 -79 -4 c-70 -3 -82 -6
-106 -31 -28 -27 -28 -29 -28 -152 0 -123 0 -125 28 -152 l27 -28 179 -3 c173
-3 179 -3 184 17 5 20 12 21 117 21 105 0 112 -1 117 -21 5 -20 11 -20 174
-17 l169 3 27 28 c28 27 28 29 28 152 0 122 0 125 -27 152 -24 23 -38 28 -97
31 l-69 4 -4 62 c-4 72 -29 115 -82 140 -50 24 -425 23 -474 -1z m440 -100
c12 -11 18 -30 18 -60 l0 -43 -220 0 -220 0 0 42 c0 76 7 78 218 78 159 0 188
-2 204 -17z"/>
<path d="M4 394 c-15 -104 16 -240 75 -321 l29 -40 102 -12 c179 -20 415 -25
595 -11 94 6 178 17 189 22 26 14 74 125 86 204 10 62 9 97 -6 177 l-6 27
-198 0 -199 0 -3 -37 -3 -38 -115 0 -115 0 -3 38 -3 37 -209 0 -209 0 -7 -46z"/>
</g>
</svg>
