<?xml version="1.0" standalone="no"?>
<!DOCTYPE svg PUBLIC "-//W3C//DTD SVG 20010904//EN"
 "http://www.w3.org/TR/2001/REC-SVG-20010904/DTD/svg10.dtd">
<svg version="1.0" xmlns="http://www.w3.org/2000/svg"
 width="142.000000pt" height="192.000000pt" viewBox="0 0 142.000000 192.000000"
 preserveAspectRatio="xMidYMid meet">
<metadata>
Created by potrace 1.16, written by Peter Selinger 2001-2019
</metadata>
<g transform="translate(0.000000,192.000000) scale(0.100000,-0.100000)"
fill="#000000" stroke="none">
<path d="M579 1897 c-118 -62 -143 -230 -49 -328 l37 -39 -52 0 c-37 0 -60 -6
-78 -20 -37 -29 -347 -570 -347 -605 0 -22 -12 -39 -45 -69 l-45 -41 100 -123
101 -122 99 80 c54 44 101 84 104 88 2 4 -22 40 -54 79 l-59 71 67 117 67 116
5 -513 c3 -282 9 -520 13 -529 32 -63 173 -63 207 0 6 12 10 129 10 305 0 279
0 286 20 286 20 0 20 -7 20 -292 0 -263 2 -295 18 -314 36 -45 106 -58 160
-30 55 28 55 33 51 438 -3 205 -2 436 1 513 l5 140 59 -105 c59 -103 60 -104
68 -74 12 46 33 58 108 64 l67 5 -138 240 c-83 143 -152 251 -171 268 -26 22
-42 27 -86 27 l-54 0 29 28 c47 43 66 89 66 157 0 66 -15 105 -60 147 -64 61
-166 76 -244 35z m145 -652 l28 -150 -25 -70 -24 -70 -34 68 -35 68 25 160
c14 87 28 156 31 152 4 -5 19 -75 34 -158z m-434 -400 c40 -49 79 -97 86 -106
12 -13 2 -25 -80 -92 l-93 -76 -87 109 c-48 60 -88 112 -88 115 0 13 177 153
183 147 4 -4 40 -47 79 -97z"/>
<path d="M952 868 c-7 -7 -12 -40 -12 -80 l0 -68 90 0 c73 0 90 3 90 15 0 11
12 15 45 15 33 0 45 -4 45 -15 0 -12 16 -15 85 -15 50 0 85 -4 85 -10 0 -6
-35 -10 -85 -10 -78 0 -85 -2 -85 -20 0 -17 -7 -20 -45 -20 -38 0 -45 3 -45
20 0 19 -7 20 -90 20 l-90 0 0 -89 c0 -63 4 -92 14 -100 9 -8 78 -11 227 -9
l214 3 0 185 0 185 -215 3 c-159 2 -219 -1 -228 -10z"/>
</g>
</svg>
