<?xml version="1.0" standalone="no"?>
<!DOCTYPE svg PUBLIC "-//W3C//DTD SVG 20010904//EN"
 "http://www.w3.org/TR/2001/REC-SVG-20010904/DTD/svg10.dtd">
<svg version="1.0" xmlns="http://www.w3.org/2000/svg"
 width="195.000000pt" height="194.000000pt" viewBox="0 0 195.000000 194.000000"
 preserveAspectRatio="xMidYMid meet">
<metadata>
Created by potrace 1.16, written by Peter Selinger 2001-2019
</metadata>
<g transform="translate(0.000000,194.000000) scale(0.100000,-0.100000)"
fill="#000000" stroke="none">
<path d="M420 1900 l0 -40 -87 0 c-143 0 -183 -39 -183 -175 l0 -75 765 0 765
0 0 75 c0 88 -16 127 -63 155 -27 17 -51 20 -144 20 l-113 0 0 35 c0 28 -4 35
-20 35 -16 0 -20 -7 -20 -35 l0 -35 -427 2 -428 3 3 38 c3 34 1 37 -22 37 -24
0 -26 -4 -26 -40z"/>
<path d="M150 1108 c0 -461 1 -484 20 -515 40 -66 10 -63 747 -63 645 0 669 1
700 20 64 39 63 29 63 560 l0 480 -765 0 -765 0 0 -482z m1128 305 l-3 -68
-65 0 -65 0 -3 68 -3 67 71 0 71 0 -3 -67z m-540 -10 l-3 -68 -67 -3 -68 -3 0
71 0 70 70 0 71 0 -3 -67z m282 -3 l0 -70 -65 0 -65 0 0 70 0 70 65 0 65 0 0
-70z m518 3 l-3 -68 -65 0 -65 0 -3 68 -3 67 71 0 71 0 -3 -67z m-1098 -223
l0 -70 -70 0 -70 0 0 63 c0 35 3 67 7 70 3 4 35 7 70 7 l63 0 0 -70z m290 0
l0 -70 -70 0 -70 0 0 63 c0 35 3 67 7 70 3 4 35 7 70 7 l63 0 0 -70z m288 -2
l3 -68 -71 0 -70 0 0 70 0 71 68 -3 67 -3 3 -67z m262 -8 l0 -70 -70 0 -70 0
0 63 c0 35 3 67 7 70 3 4 35 7 70 7 l63 0 0 -70z m248 3 l-3 -68 -67 -3 -68
-3 0 71 0 70 70 0 71 0 -3 -67z m-1088 -243 l0 -71 -67 3 -68 3 -3 54 c-5 79
-2 81 73 81 l65 0 0 -70z m290 0 l0 -71 -67 3 -68 3 -3 54 c-5 79 -2 81 73 81
l65 0 0 -70z m800 0 l0 -70 -65 0 -65 0 0 70 0 70 65 0 65 0 0 -70z m-525 -10
l0 -65 -67 -3 -68 -3 0 71 0 71 68 -3 67 -3 0 -65z m265 0 l0 -71 -67 3 -68 3
-3 68 -3 67 71 0 70 0 0 -70z m-830 -210 l0 -70 -65 0 -65 0 0 70 0 70 65 0
65 0 0 -70z m295 0 l0 -65 -67 -3 -68 -3 0 71 0 71 68 -3 67 -3 0 -65z m285 0
l0 -71 -67 3 -68 3 -3 54 c-5 79 -2 81 73 81 l65 0 0 -70z"/>
<path d="M384 447 c-2 -7 -3 -67 -2 -133 l3 -119 73 -3 c58 -2 72 0 72 12 0 8
3 21 6 30 5 13 -2 16 -40 16 -42 0 -46 2 -46 25 0 23 4 25 40 25 38 0 40 2 40
30 0 28 -2 30 -40 30 -33 0 -40 3 -40 20 0 17 7 20 40 20 38 0 40 2 40 30 l0
30 -70 0 c-49 0 -72 -4 -76 -13z"/>
<path d="M540 441 c0 -18 19 -113 45 -228 4 -19 12 -23 45 -23 44 0 39 -11 72
145 l23 110 5 -125 5 -125 73 -3 c58 -2 72 0 72 12 0 8 3 21 6 30 5 13 -2 16
-40 16 -42 0 -46 2 -46 25 0 23 4 25 40 25 38 0 40 2 40 30 0 28 -2 30 -40 30
-33 0 -40 3 -40 20 0 17 7 20 40 20 38 0 40 2 40 30 l0 31 -112 -3 -113 -3
-11 -70 c-11 -74 -14 -71 -31 25 -8 41 -11 45 -41 48 -27 3 -32 0 -32 -17z"/>
<path d="M905 448 c-3 -8 -4 -68 -3 -134 l3 -119 30 0 c29 0 30 2 33 50 l4 50
16 -50 c16 -47 19 -50 52 -50 l35 0 0 130 0 130 -30 0 c-28 0 -30 -2 -33 -45
l-4 -45 -17 45 c-14 39 -21 45 -49 48 -20 2 -34 -2 -37 -10z"/>
<path d="M1090 430 c0 -25 4 -30 25 -30 l25 0 0 -106 0 -105 33 3 32 3 3 103
c2 94 4 102 22 102 16 0 20 7 20 30 l0 30 -80 0 -80 0 0 -30z"/>
<path d="M1282 440 c-45 -42 -17 -124 49 -145 12 -4 19 -16 19 -31 0 -29 -20
-32 -27 -4 -4 15 -14 20 -40 20 -33 0 -35 -2 -29 -27 15 -61 88 -83 140 -42
20 16 26 29 26 58 0 39 -20 66 -67 90 -14 7 -23 21 -22 34 l0 22 16 -22 c21
-31 73 -32 73 -3 0 58 -93 91 -138 50z"/>
</g>
</svg>
