<?xml version="1.0" standalone="no"?>
<!DOCTYPE svg PUBLIC "-//W3C//DTD SVG 20010904//EN"
 "http://www.w3.org/TR/2001/REC-SVG-20010904/DTD/svg10.dtd">
<svg version="1.0" xmlns="http://www.w3.org/2000/svg"
 width="576.000000pt" height="461.000000pt" viewBox="0 0 576.000000 461.000000"
 preserveAspectRatio="xMidYMid meet">
<metadata>
Created by potrace 1.16, written by Peter Selinger 2001-2019
</metadata>
<g transform="translate(0.000000,461.000000) scale(0.100000,-0.100000)"
fill="#000000" stroke="none">
<path d="M1506 3242 l-1348 -1267 371 -3 371 -2 0 -985 0 -985 725 0 725 0 0
670 0 670 505 0 505 0 0 -670 0 -670 735 0 735 0 0 985 0 985 386 2 386 3
-1367 1265 c-752 696 -1370 1266 -1373 1267 -4 1 -614 -568 -1356 -1265z"/>
</g>
</svg>
