<?xml version="1.0" standalone="no"?>
<!DOCTYPE svg PUBLIC "-//W3C//DTD SVG 20010904//EN"
 "http://www.w3.org/TR/2001/REC-SVG-20010904/DTD/svg10.dtd">
<svg version="1.0" xmlns="http://www.w3.org/2000/svg"
 width="97.000000pt" height="79.000000pt" viewBox="0 0 97.000000 79.000000"
 preserveAspectRatio="xMidYMid meet">
<metadata>
Created by potrace 1.16, written by Peter Selinger 2001-2019
</metadata>
<g transform="translate(0.000000,79.000000) scale(0.100000,-0.100000)"
fill="#000000" stroke="none">
<path d="M63 770 c-17 -10 -37 -28 -42 -39 -7 -13 -11 -130 -11 -331 0 -345 1
-354 64 -384 26 -12 64 -16 155 -16 l121 0 0 30 0 30 -119 0 c-102 0 -122 3
-142 19 l-24 19 -3 290 -3 290 25 28 c24 29 26 29 145 32 120 4 121 4 121 28
l0 24 -127 0 c-109 0 -133 -3 -160 -20z"/>
<path d="M540 586 l0 -106 -170 0 -170 0 0 -42 c0 -24 3 -60 6 -80 l7 -38 168
0 169 0 0 -100 c0 -55 2 -100 5 -100 9 0 415 283 415 289 0 6 -402 272 -421
279 -5 2 -9 -44 -9 -102z"/>
</g>
</svg>
