<?xml version="1.0" standalone="no"?>
<!DOCTYPE svg PUBLIC "-//W3C//DTD SVG 20010904//EN"
 "http://www.w3.org/TR/2001/REC-SVG-20010904/DTD/svg10.dtd">
<svg version="1.0" xmlns="http://www.w3.org/2000/svg"
 width="130.000000pt" height="132.000000pt" viewBox="0 0 130.000000 132.000000"
 preserveAspectRatio="xMidYMid meet">
<metadata>
Created by potrace 1.16, written by Peter Selinger 2001-2019
</metadata>
<g transform="translate(0.000000,132.000000) scale(0.100000,-0.100000)"
fill="#000000" stroke="none">
<path d="M580 1260 l0 -59 -42 -11 c-63 -16 -113 -37 -158 -65 -22 -14 -42
-25 -46 -25 -3 0 -27 18 -53 40 -26 22 -51 40 -57 40 -5 0 -31 -28 -59 -61
l-49 -62 49 -42 49 -43 -27 -55 c-31 -60 -57 -147 -57 -189 0 -28 -1 -28 -65
-28 l-65 0 0 -85 0 -85 70 0 c58 0 72 -3 77 -17 3 -10 17 -44 31 -76 l25 -58
-49 -50 -48 -49 59 -60 c33 -33 64 -60 69 -60 6 0 29 19 52 41 l42 42 53 -32
c28 -18 83 -42 120 -54 l69 -22 0 -67 0 -68 90 0 90 0 0 68 0 67 65 19 c36 10
90 33 119 51 l54 33 33 -34 c18 -19 38 -34 44 -34 6 0 35 25 65 55 l54 55 -39
40 -38 39 25 48 c14 26 32 67 39 90 l12 43 59 0 58 0 0 75 0 75 -48 0 -47 0
-17 78 c-9 44 -29 105 -44 137 l-28 57 47 40 c26 22 47 45 47 50 0 14 -80 108
-92 108 -6 0 -32 -18 -59 -41 l-48 -40 -33 24 c-48 36 -110 65 -171 81 l-52
13 -3 62 -3 61 -84 0 -85 0 0 -60z m132 -459 c37 -14 77 -61 89 -103 24 -91
-78 -193 -169 -169 -42 12 -89 52 -103 89 -42 110 73 225 183 183z"/>
</g>
</svg>
