<svg id="Capa_1" enable-background="new 0 0 512 512" height="512" viewBox="0 0 512 512" width="512" xmlns="http://www.w3.org/2000/svg"><g><path d="m122.008 89.145 59.992 21.173v84.682c0 8.284 6.716 15 15 15h200c8.284 0 15-6.716 15-15v-84.682l40-14.118v58.8c0 8.284 6.716 15 15 15s15-6.716 15-15v-80c0-6.359-4.011-12.028-10.008-14.145l-170-60c-3.23-1.141-6.754-1.141-9.984 0l-170 60c-5.997 2.117-10.008 7.786-10.008 14.145s4.011 12.028 10.008 14.145zm259.992 90.855h-170v-59.094l80.008 28.238c1.615.57 3.304.855 4.992.855s3.377-.285 4.992-.855l80.008-28.238zm-85-149.093 124.931 44.093-124.931 44.093-124.931-44.093z"/><path d="m480.892 274.583c-18.899-6.4-38.938-.291-51.059 15.558l-55.863 73.051c.009-.397.03-.792.03-1.192 0-27.57-22.43-50-50-50h-99.232c-31.637-26.916-76.35-31.706-112.768-12.853v-2.147c0-8.284-6.716-15-15-15h-82c-8.284 0-15 6.716-15 15v200c0 8.284 6.716 15 15 15h82c8.284 0 15-6.716 15-15v-15h245.864c35.895 0 68.913-18.026 88.324-48.221l58.539-91.061c4.758-7.401 7.273-15.964 7.273-24.763 0-19.95-12.211-36.976-31.108-43.372zm-398.892 207.417h-52v-170h52zm397.492-155.504-58.539 91.061c-13.865 21.567-37.45 34.443-63.089 34.443h-245.864v-117.281l5.017-3.583c28.139-20.101 66.657-17.293 91.586 6.677 2.794 2.687 6.52 4.188 10.396 4.188h105c11.028 0 20 8.972 20 20s-8.972 20-20 20h-104.999-2c-8.284 0-15 6.716-15 15s6.716 15 15 15h2 105 13.35c23.208 0 45.479-11.006 59.577-29.441l56.737-74.195c6.383-8.347 15.091-6.218 17.608-5.365s10.728 4.449 10.728 14.958c0 3.032-.867 5.985-2.508 8.538z"/></g></svg>