<?xml version="1.0" standalone="no"?>
<!DOCTYPE svg PUBLIC "-//W3C//DTD SVG 20010904//EN"
 "http://www.w3.org/TR/2001/REC-SVG-20010904/DTD/svg10.dtd">
<svg version="1.0" xmlns="http://www.w3.org/2000/svg"
 width="172.000000pt" height="128.000000pt" viewBox="0 0 172.000000 128.000000"
 preserveAspectRatio="xMidYMid meet">
<metadata>
Created by potrace 1.16, written by Peter Selinger 2001-2019
</metadata>
<g transform="translate(0.000000,128.000000) scale(0.100000,-0.100000)"
fill="#000000" stroke="none">
<path d="M329 1273 c-52 -9 -132 -66 -163 -117 -56 -90 -46 -227 21 -307 83
-99 244 -117 350 -40 l40 29 5 84 c3 60 11 95 27 127 26 50 23 71 -17 127 -51
70 -168 114 -263 97z"/>
<path d="M1268 1270 c-59 -15 -116 -56 -148 -107 -36 -56 -36 -62 -8 -116 15
-29 23 -67 26 -122 3 -55 10 -86 21 -99 45 -51 166 -79 248 -57 106 29 183
133 183 247 0 104 -43 181 -128 227 -55 30 -137 41 -194 27z"/>
<path d="M759 1117 c-86 -45 -135 -158 -109 -251 47 -168 267 -215 378 -80
116 140 15 354 -168 354 -40 0 -70 -7 -101 -23z"/>
<path d="M176 634 c-32 -10 -64 -31 -96 -63 -63 -63 -80 -118 -80 -261 l0
-107 78 -26 c42 -14 91 -28 107 -32 53 -12 208 -24 236 -18 26 5 27 5 31 112
4 81 10 118 27 158 30 69 105 139 165 155 26 7 46 15 46 19 0 14 -62 51 -107
65 -65 20 -341 18 -407 -2z"/>
<path d="M1133 636 c-42 -14 -103 -52 -103 -65 0 -4 20 -12 46 -19 60 -16 135
-86 165 -155 17 -40 23 -77 27 -158 4 -107 5 -107 31 -112 34 -7 192 7 251 22
25 7 73 22 108 33 l62 22 0 106 c0 142 -17 198 -80 260 -68 69 -113 80 -309
79 -98 0 -171 -5 -198 -13z"/>
<path d="M668 494 c-27 -8 -63 -30 -81 -48 -56 -55 -67 -91 -67 -209 l0 -105
43 -16 c174 -65 420 -65 595 0 l44 16 -4 117 c-3 112 -4 118 -35 163 -21 30
-49 54 -80 70 -44 21 -63 23 -208 25 -120 2 -172 -1 -207 -13z"/>
</g>
</svg>
